<svg width="57" height="61" viewBox="0 0 57 61" fill="none" xmlns="http://www.w3.org/2000/svg">
<g clip-path="url(#clip0_177_45)" filter="url(#filter0_d_177_45)">
<path d="M44.6029 56.2154H12.3247C6.46632 56.2154 1.71143 51.4406 1.71143 45.5576V19.9237C1.71143 14.0407 6.46632 9.26593 12.3247 9.26593H44.6029C50.4613 9.26593 55.2162 14.0407 55.2162 19.9237V45.5576C55.2162 51.4406 50.4613 56.2154 44.6029 56.2154Z" fill="#F9B842"/>
<path d="M44.6029 56.2154H12.3247C6.46632 56.2154 1.71143 51.4406 1.71143 45.5576V19.9237C1.71143 14.0407 6.46632 9.26593 12.3247 9.26593H44.6029C50.4613 9.26593 55.2162 14.0407 55.2162 19.9237V45.5576C55.2162 51.4406 50.4613 56.2154 44.6029 56.2154Z" fill="#FFD27B"/>
<path d="M45.9824 4.94742C51.0781 4.94742 55.2163 9.49407 55.2163 15.1163V46.0465C55.2163 51.6524 50.0882 56.2154 44.9763 56.2154H33.584V4.94742H45.9824Z" fill="url(#paint0_linear_177_45)"/>
<path d="M10.9453 4.94742C5.84963 4.94742 1.7114 9.49407 1.7114 15.1163V46.0465C1.7114 51.6524 6.83955 56.2154 11.9515 56.2154H23.3438V4.94742H10.9453Z" fill="url(#paint1_linear_177_45)"/>
<path d="M44.6029 46.8613H12.3247C6.46632 46.8613 1.71143 42.0865 1.71143 36.2036V10.5859C1.71143 4.70299 6.46632 -0.0718098 12.3247 -0.0718098H44.6029C50.4613 -0.0718098 55.2162 4.70299 55.2162 10.5859V36.2199C55.2162 42.0865 50.4613 46.8613 44.6029 46.8613Z" fill="#FFDE32"/>
<path d="M28.844 33.376C29.1082 33.376 29.3664 33.2976 29.5861 33.1506C29.8057 33.0037 29.9769 32.7948 30.078 32.5504C30.1791 32.306 30.2055 32.0371 30.154 31.7776C30.1025 31.5182 29.9753 31.2799 29.7885 31.0928C29.6017 30.9058 29.3637 30.7784 29.1046 30.7268C28.8455 30.6752 28.577 30.7017 28.3329 30.8029C28.0889 30.9041 27.8803 31.0756 27.7335 31.2955C27.5867 31.5154 27.5084 31.774 27.5084 32.0386C27.5084 32.3933 27.6491 32.7335 27.8996 32.9843C28.1501 33.2351 28.4898 33.376 28.844 33.376ZM35.5222 33.376C35.7863 33.376 36.0445 33.2976 36.2642 33.1506C36.4838 33.0037 36.655 32.7948 36.7561 32.5504C36.8572 32.306 36.8836 32.0371 36.8321 31.7776C36.7806 31.5182 36.6534 31.2799 36.4666 31.0928C36.2798 30.9058 36.0418 30.7784 35.7827 30.7268C35.5236 30.6752 35.2551 30.7017 35.011 30.8029C34.767 30.9041 34.5584 31.0756 34.4116 31.2955C34.2649 31.5154 34.1865 31.774 34.1865 32.0386C34.1865 32.3933 34.3272 32.7335 34.5777 32.9843C34.8282 33.2351 35.1679 33.376 35.5222 33.376ZM35.5222 28.0261C35.7863 28.0261 36.0445 27.9477 36.2642 27.8007C36.4838 27.6538 36.655 27.4449 36.7561 27.2005C36.8572 26.9561 36.8836 26.6872 36.8321 26.4278C36.7806 26.1683 36.6534 25.93 36.4666 25.7429C36.2798 25.5559 36.0418 25.4285 35.7827 25.3769C35.5236 25.3253 35.2551 25.3518 35.011 25.453C34.767 25.5542 34.5584 25.7257 34.4116 25.9456C34.2649 26.1656 34.1865 26.4242 34.1865 26.6887C34.1865 27.0434 34.3272 27.3836 34.5777 27.6344C34.8282 27.8852 35.1679 28.0261 35.5222 28.0261ZM28.844 28.0261C29.1082 28.0261 29.3664 27.9477 29.5861 27.8007C29.8057 27.6538 29.9769 27.4449 30.078 27.2005C30.1791 26.9561 30.2055 26.6872 30.154 26.4278C30.1025 26.1683 29.9753 25.93 29.7885 25.7429C29.6017 25.5559 29.3637 25.4285 29.1046 25.3769C28.8455 25.3253 28.577 25.3518 28.3329 25.453C28.0889 25.5542 27.8803 25.7257 27.7335 25.9456C27.5867 26.1656 27.5084 26.4242 27.5084 26.6887C27.5084 27.0434 27.6491 27.3836 27.8996 27.6344C28.1501 27.8852 28.4898 28.0261 28.844 28.0261ZM38.1934 11.9765H36.8578V10.639C36.8578 10.2843 36.7171 9.94414 36.4666 9.69332C36.2161 9.44249 35.8764 9.30158 35.5222 9.30158C35.1679 9.30158 34.8282 9.44249 34.5777 9.69332C34.3272 9.94414 34.1865 10.2843 34.1865 10.639V11.9765H23.5015V10.639C23.5015 10.2843 23.3608 9.94414 23.1103 9.69332C22.8599 9.44249 22.5201 9.30158 22.1659 9.30158C21.8117 9.30158 21.472 9.44249 21.2215 9.69332C20.971 9.94414 20.8303 10.2843 20.8303 10.639V11.9765H19.4947C18.432 11.9765 17.4128 12.3993 16.6614 13.1517C15.9099 13.9042 15.4878 14.9248 15.4878 15.9889V34.7135C15.4878 35.7777 15.9099 36.7982 16.6614 37.5507C17.4128 38.3032 18.432 38.7259 19.4947 38.7259H38.1934C39.2561 38.7259 40.2753 38.3032 41.0267 37.5507C41.7781 36.7982 42.2003 35.7777 42.2003 34.7135V15.9889C42.2003 14.9248 41.7781 13.9042 41.0267 13.1517C40.2753 12.3993 39.2561 11.9765 38.1934 11.9765ZM39.529 34.7135C39.529 35.0682 39.3883 35.4084 39.1378 35.6592C38.8874 35.9101 38.5476 36.051 38.1934 36.051H19.4947C19.1404 36.051 18.8007 35.9101 18.5502 35.6592C18.2998 35.4084 18.159 35.0682 18.159 34.7135V22.6763H39.529V34.7135ZM39.529 20.0013H18.159V15.9889C18.159 15.6342 18.2998 15.294 18.5502 15.0432C18.8007 14.7924 19.1404 14.6515 19.4947 14.6515H20.8303V15.9889C20.8303 16.3436 20.971 16.6838 21.2215 16.9347C21.472 17.1855 21.8117 17.3264 22.1659 17.3264C22.5201 17.3264 22.8599 17.1855 23.1103 16.9347C23.3608 16.6838 23.5015 16.3436 23.5015 15.9889V14.6515H34.1865V15.9889C34.1865 16.3436 34.3272 16.6838 34.5777 16.9347C34.8282 17.1855 35.1679 17.3264 35.5222 17.3264C35.8764 17.3264 36.2161 17.1855 36.4666 16.9347C36.7171 16.6838 36.8578 16.3436 36.8578 15.9889V14.6515H38.1934C38.5476 14.6515 38.8874 14.7924 39.1378 15.0432C39.3883 15.294 39.529 15.6342 39.529 15.9889V20.0013ZM22.1659 28.0261C22.4301 28.0261 22.6883 27.9477 22.9079 27.8007C23.1276 27.6538 23.2988 27.4449 23.3999 27.2005C23.501 26.9561 23.5274 26.6872 23.4759 26.4278C23.4243 26.1683 23.2971 25.93 23.1103 25.7429C22.9236 25.5559 22.6856 25.4285 22.4265 25.3769C22.1674 25.3253 21.8988 25.3518 21.6548 25.453C21.4107 25.5542 21.2021 25.7257 21.0554 25.9456C20.9086 26.1656 20.8303 26.4242 20.8303 26.6887C20.8303 27.0434 20.971 27.3836 21.2215 27.6344C21.472 27.8852 21.8117 28.0261 22.1659 28.0261ZM22.1659 33.376C22.4301 33.376 22.6883 33.2976 22.9079 33.1506C23.1276 33.0037 23.2988 32.7948 23.3999 32.5504C23.501 32.306 23.5274 32.0371 23.4759 31.7776C23.4243 31.5182 23.2971 31.2799 23.1103 31.0928C22.9236 30.9058 22.6856 30.7784 22.4265 30.7268C22.1674 30.6752 21.8988 30.7017 21.6548 30.8029C21.4107 30.9041 21.2021 31.0756 21.0554 31.2955C20.9086 31.5154 20.8303 31.774 20.8303 32.0386C20.8303 32.3933 20.971 32.7335 21.2215 32.9843C21.472 33.2351 21.8117 33.376 22.1659 33.376Z" fill="white"/>
</g>
<defs>
<filter id="filter0_d_177_45" x="0" y="0" width="57" height="61" filterUnits="userSpaceOnUse" color-interpolation-filters="sRGB">
<feFlood flood-opacity="0" result="BackgroundImageFix"/>
<feColorMatrix in="SourceAlpha" type="matrix" values="0 0 0 0 0 0 0 0 0 0 0 0 0 0 0 0 0 0 127 0" result="hardAlpha"/>
<feOffset dy="3"/>
<feGaussianBlur stdDeviation="1"/>
<feColorMatrix type="matrix" values="0 0 0 0 0.870588 0 0 0 0 0.6 0 0 0 0 0.34902 0 0 0 1 0"/>
<feBlend mode="normal" in2="BackgroundImageFix" result="effect1_dropShadow_177_45"/>
<feBlend mode="normal" in="SourceGraphic" in2="effect1_dropShadow_177_45" result="shape"/>
</filter>
<linearGradient id="paint0_linear_177_45" x1="62.2829" y1="30.5824" x2="33.5874" y2="30.5824" gradientUnits="userSpaceOnUse">
<stop stop-color="#FFBE5C"/>
<stop offset="0.84375" stop-color="#FFA90B" stop-opacity="0"/>
</linearGradient>
<linearGradient id="paint1_linear_177_45" x1="-5.35521" y1="30.5824" x2="23.3403" y2="30.5824" gradientUnits="userSpaceOnUse">
<stop stop-color="#FFBE5C"/>
<stop offset="0.84375" stop-color="#FFA90B" stop-opacity="0"/>
</linearGradient>
<clipPath id="clip0_177_45">
<rect width="53" height="56" fill="white" transform="translate(2)"/>
</clipPath>
</defs>
</svg>
